<svg xmlns="http://www.w3.org/2000/svg" width="6" height="10" viewBox="0 0 6 10" fill="#134d83">
  <path d="M0.229439 0.220115C0.0825295 0.361098 0 0.552285 0 0.751634C0 0.950983 0.0825295 1.14217 0.229439 1.28315L4.10846 5.00454L0.229439 8.72592C0.086693 8.86771 0.0077061 9.05762 0.00949156 9.25474C0.011277 9.45186 0.0936919 9.64042 0.238985 9.77981C0.384278 9.91919 0.580825 9.99826 0.786293 9.99997C0.991761 10.0017 1.18971 9.92591 1.33751 9.78896L5.77056 5.53606C5.91747 5.39508 6 5.20389 6 5.00454C6 4.80519 5.91747 4.614 5.77056 4.47302L1.33751 0.220115C1.19055 0.0791756 0.991266 0 0.783473 0C0.57568 0 0.376394 0.0791756 0.229439 0.220115Z" fill="#134d83"/>
</svg>
