<svg version="1.2" xmlns="http://www.w3.org/2000/svg" xmlns:xlink="http://www.w3.org/1999/xlink" overflow="visible" preserveAspectRatio="none" viewBox="0 0 12 12" width="12" height="12"><g transform="translate(0, 0)"><defs><path id="path-162884826898823224" d="M5.841984551356529 1.0324803888636405 C5.841984551356529 1.0324803888636405 5.31165478609957 1.5690038191964726 5.31165478609957 1.5690038191964726 C5.18613706904345 1.6959874443563112 5.18613706904345 1.9018819351724565 5.31165478609957 2.0288926588438523 C5.31165478609957 2.0288926588438523 9.466918005671872 6.232657658293413 9.466918005671872 6.232657658293413 C9.466918005671872 6.232657658293413 0.321428212691727 6.232657658293413 0.321428212691727 6.232657658293413 C0.14391948223272075 6.232657658293413 0 6.378257960893459 0 6.557839796986984 C0 6.557839796986984 0 7.316598120605311 0 7.316598120605311 C0 7.4961799566988345 0.14391948223272075 7.64178025929888 0.321428212691727 7.64178025929888 C0.321428212691727 7.64178025929888 9.466918005671872 7.64178025929888 9.466918005671872 7.64178025929888 C9.466918005671872 7.64178025929888 5.311654786099571 11.845572357259998 5.311654786099571 11.845572357259998 C5.1861370690434505 11.972555982419838 5.1861370690434505 12.178450473235982 5.311654786099571 12.305461196907379 C5.311654786099571 12.305461196907379 5.84198455135653 12.84198462724021 5.84198455135653 12.84198462724021 C5.96750226841265 12.968968252400048 6.171019898415294 12.968968252400048 6.2965644011558055 12.84198462724021 C6.2965644011558055 12.84198462724021 11.905861712207912 7.167176927875616 11.905861712207912 7.167176927875616 C12.031379429264035 7.040193302715777 12.031379429264035 6.834298811899634 11.905861712207912 6.7072880882282355 C11.905861712207912 6.7072880882282355 6.296537615471413 1.0324803888636405 6.296537615471413 1.0324803888636405 C6.171019898415293 0.9054696651922439 5.967502268412647 0.9054696651922439 5.841984551356529 1.0324803888636405 Z" vector-effect="non-scaling-stroke"></path></defs><g transform="translate(0, -0.9372223461100935)"><path d="M5.841984551356529 1.0324803888636405 C5.841984551356529 1.0324803888636405 5.31165478609957 1.5690038191964726 5.31165478609957 1.5690038191964726 C5.18613706904345 1.6959874443563112 5.18613706904345 1.9018819351724565 5.31165478609957 2.0288926588438523 C5.31165478609957 2.0288926588438523 9.466918005671872 6.232657658293413 9.466918005671872 6.232657658293413 C9.466918005671872 6.232657658293413 0.321428212691727 6.232657658293413 0.321428212691727 6.232657658293413 C0.14391948223272075 6.232657658293413 0 6.378257960893459 0 6.557839796986984 C0 6.557839796986984 0 7.316598120605311 0 7.316598120605311 C0 7.4961799566988345 0.14391948223272075 7.64178025929888 0.321428212691727 7.64178025929888 C0.321428212691727 7.64178025929888 9.466918005671872 7.64178025929888 9.466918005671872 7.64178025929888 C9.466918005671872 7.64178025929888 5.311654786099571 11.845572357259998 5.311654786099571 11.845572357259998 C5.1861370690434505 11.972555982419838 5.1861370690434505 12.178450473235982 5.311654786099571 12.305461196907379 C5.311654786099571 12.305461196907379 5.84198455135653 12.84198462724021 5.84198455135653 12.84198462724021 C5.96750226841265 12.968968252400048 6.171019898415294 12.968968252400048 6.2965644011558055 12.84198462724021 C6.2965644011558055 12.84198462724021 11.905861712207912 7.167176927875616 11.905861712207912 7.167176927875616 C12.031379429264035 7.040193302715777 12.031379429264035 6.834298811899634 11.905861712207912 6.7072880882282355 C11.905861712207912 6.7072880882282355 6.296537615471413 1.0324803888636405 6.296537615471413 1.0324803888636405 C6.171019898415293 0.9054696651922439 5.967502268412647 0.9054696651922439 5.841984551356529 1.0324803888636405 Z" style="stroke-width: 0; stroke-linecap: butt; stroke-linejoin: miter; fill: rgb(255, 255, 255);" vector-effect="non-scaling-stroke"></path></g></g></svg>
