<svg version="1.2"  xmlns="http://www.w3.org/2000/svg" xmlns:xlink="http://www.w3.org/1999/xlink" overflow="visible" preserveAspectRatio="none" viewBox="0 0 23 18" width="23" height="18"><g transform="translate(0, 0)"><g transform="translate(8.881784197001252e-16, 4.440892098500626e-16) rotate(0)"><path d="M22.425,12.9375h-0.575v-4.08164c0,-0.66797 -0.27672,-1.31836 -0.75828,-1.78945l-3.01516,-2.94961c-0.48156,-0.47109 -1.15,-0.7418 -1.82922,-0.7418h-1.29734v-1.40625c0,-1.08633 -0.90203,-1.96875 -2.0125,-1.96875h-10.925c-1.11047,0 -2.0125,0.88242 -2.0125,1.96875v10.6875c0,1.08633 0.90203,1.96875 2.0125,1.96875h0.2875c0,1.86328 1.54531,3.375 3.45,3.375c1.90469,0 3.45,-1.51172 3.45,-3.375h4.6c0,1.86328 1.54531,3.375 3.45,3.375c1.90469,0 3.45,-1.51172 3.45,-3.375h1.725c0.31625,0 0.575,-0.25312 0.575,-0.5625v-0.5625c0,-0.30938 -0.25875,-0.5625 -0.575,-0.5625zM5.75,16.3125c-0.95234,0 -1.725,-0.75586 -1.725,-1.6875c0,-0.93164 0.77266,-1.6875 1.725,-1.6875c0.95234,0 1.725,0.75586 1.725,1.6875c0,0.93164 -0.77266,1.6875 -1.725,1.6875zM13.225,12.9375h-4.50297c-0.59656,-1.00547 -1.69625,-1.6875 -2.97203,-1.6875c-1.27578,0 -2.37547,0.68203 -2.97203,1.6875h-0.76547c-0.15812,0 -0.2875,-0.12656 -0.2875,-0.28125v-10.6875c0,-0.15469 0.12937,-0.28125 0.2875,-0.28125h10.925c0.15812,0 0.2875,0.12656 0.2875,0.28125zM14.95,5.0625h1.29734c0.22641,0 0.44922,0.09141 0.61094,0.24609l2.62344,2.56641h-4.53172zM17.25,16.3125c-0.95234,0 -1.725,-0.75586 -1.725,-1.6875c0,-0.93164 0.77266,-1.6875 1.725,-1.6875c0.95234,0 1.725,0.75586 1.725,1.6875c0,0.93164 -0.77266,1.6875 -1.725,1.6875zM20.125,12.76523c-0.61813,-0.91055 -1.67469,-1.51523 -2.875,-1.51523c-0.88766,0 -1.68906,0.3375 -2.3,0.87539v-2.56289h5.175z" style="stroke-width: 0; stroke-linecap: butt; stroke-linejoin: miter; fill: rgb(49, 49, 49);" vector-effect="non-scaling-stroke"></path></g><defs><path id="path-162884826900923310" d="M22.425,12.9375h-0.575v-4.08164c0,-0.66797 -0.27672,-1.31836 -0.75828,-1.78945l-3.01516,-2.94961c-0.48156,-0.47109 -1.15,-0.7418 -1.82922,-0.7418h-1.29734v-1.40625c0,-1.08633 -0.90203,-1.96875 -2.0125,-1.96875h-10.925c-1.11047,0 -2.0125,0.88242 -2.0125,1.96875v10.6875c0,1.08633 0.90203,1.96875 2.0125,1.96875h0.2875c0,1.86328 1.54531,3.375 3.45,3.375c1.90469,0 3.45,-1.51172 3.45,-3.375h4.6c0,1.86328 1.54531,3.375 3.45,3.375c1.90469,0 3.45,-1.51172 3.45,-3.375h1.725c0.31625,0 0.575,-0.25312 0.575,-0.5625v-0.5625c0,-0.30938 -0.25875,-0.5625 -0.575,-0.5625zM5.75,16.3125c-0.95234,0 -1.725,-0.75586 -1.725,-1.6875c0,-0.93164 0.77266,-1.6875 1.725,-1.6875c0.95234,0 1.725,0.75586 1.725,1.6875c0,0.93164 -0.77266,1.6875 -1.725,1.6875zM13.225,12.9375h-4.50297c-0.59656,-1.00547 -1.69625,-1.6875 -2.97203,-1.6875c-1.27578,0 -2.37547,0.68203 -2.97203,1.6875h-0.76547c-0.15812,0 -0.2875,-0.12656 -0.2875,-0.28125v-10.6875c0,-0.15469 0.12937,-0.28125 0.2875,-0.28125h10.925c0.15812,0 0.2875,0.12656 0.2875,0.28125zM14.95,5.0625h1.29734c0.22641,0 0.44922,0.09141 0.61094,0.24609l2.62344,2.56641h-4.53172zM17.25,16.3125c-0.95234,0 -1.725,-0.75586 -1.725,-1.6875c0,-0.93164 0.77266,-1.6875 1.725,-1.6875c0.95234,0 1.725,0.75586 1.725,1.6875c0,0.93164 -0.77266,1.6875 -1.725,1.6875zM20.125,12.76523c-0.61813,-0.91055 -1.67469,-1.51523 -2.875,-1.51523c-0.88766,0 -1.68906,0.3375 -2.3,0.87539v-2.56289h5.175z" vector-effect="non-scaling-stroke"></path></defs></g></svg>
