<svg xmlns="http://www.w3.org/2000/svg" viewBox="0 0 165 53.948">
  <g transform="translate(72.5 15.212)">
    <g transform="translate(-72.5 -15.212)">
      <path class="bde-logo-cls-1" d="M8.1,81.407a1.661,1.661,0,0,1,.5-1.038A1.536,1.536,0,0,1,9.633,80a1.121,1.121,0,0,1,.913.291,1.2,1.2,0,0,1,.208,1L9.135,92.618a1.619,1.619,0,0,1-.5,1.038,1.5,1.5,0,0,1-1.038.332,1.163,1.163,0,0,1-.913-.332,1.246,1.246,0,0,1-.208-1L8.055,81.366ZM0,99.262H5.315l.374-2.533h.083a4.407,4.407,0,0,0,1.37,2.408,3.778,3.778,0,0,0,2.284.5,4.7,4.7,0,0,0,3.9-1.495q1.287-1.536,1.785-5.273l1.993-13.91q.374-2.865-.706-3.945a3.572,3.572,0,0,0-2.99-.913,5.357,5.357,0,0,0-2.657.789A6.893,6.893,0,0,0,8.8,76.881H8.72L10.505,64.3l-5.689.415Z" transform="translate(0 -55.207)"></path>
      <path class="bde-logo-cls-1" d="M38.342,97.683h5.938l3.7-25.37-6.062.332L38.3,97.724ZM42.618,67.87l6.021-.332.872-5.938-6.062.415Z" transform="translate(-22.397 -53.628)"></path>
      <path class="bde-logo-cls-1" d="M57,96.864h6.1L68.5,60.2l-6.228.415L57,96.864Z" transform="translate(-33.332 -52.809)"></path>
      <path class="bde-logo-cls-1" d="M76.2,96.045h6.311L88.075,58.8l-6.436.457L76.2,96.045Z" transform="translate(-44.56 -51.99)"></path>
      <path class="bde-logo-cls-1" d="M95.9,95.168h6.519l4.028-26.574-6.6.332ZM100.592,63.9l6.644-.374.955-6.228-6.644.457-.913,6.145Z" transform="translate(-56.08 -51.113)"></path>
      <path class="bde-logo-cls-1" d="M126.106,89.882a1.91,1.91,0,0,1,.581-1.246,2.242,2.242,0,0,1,1.412-.415,1.734,1.734,0,0,1,1.287.291,1.477,1.477,0,0,1,.208,1.246l-2.035,13a1.869,1.869,0,0,1-.581,1.246,2.2,2.2,0,0,1-1.37.374,1.661,1.661,0,0,1-1.287-.332,1.412,1.412,0,0,1-.208-1.2l1.993-12.913Zm-8.844,13.578a7.6,7.6,0,0,0,.415,4.567c.581,1.246,1.91,1.868,3.986,1.91a6.187,6.187,0,0,0,2.782-.623,6.727,6.727,0,0,0,2.284-1.869h.083l-.747,4.817a2.2,2.2,0,0,1-.623,1.412,2.118,2.118,0,0,1-1.412.332,2.159,2.159,0,0,1-1.287-.291.913.913,0,0,1-.249-.913l.083-.581h-5.938l-.208,1.412a5.062,5.062,0,0,0,.83,4.235q1.308,1.619,5.232,1.744c2.616.083,5.522-.332,7.225-1.37s2.824-3.073,3.322-6.1L137.774,82.2l-6.561.332-.374,2.533h-.125a4.609,4.609,0,0,0-2.076-2.242,6.685,6.685,0,0,0-3.239-.457,5.315,5.315,0,0,0-3.945,1.993,10.7,10.7,0,0,0-2.076,5.315Z" transform="translate(-68.017 -65.674)"></path>
      <path class="bde-logo-cls-1" d="M164.353,99.96a10.559,10.559,0,0,0,.208,5.522,4.318,4.318,0,0,0,2.782,2.574,15.986,15.986,0,0,0,5.149.623c3.7.042,6.353-.457,8.014-1.578s2.7-3.114,3.114-6.062l.249-1.619-7.64.125-.208,1.329a2.415,2.415,0,0,1-.789,1.619,2.741,2.741,0,0,1-1.661.374q-1.37.042-1.744-.374A1.687,1.687,0,0,1,171.7,101l.747-4.734,11.958-.249,1.453-8.886a8.678,8.678,0,0,0-.083-4.028,4.318,4.318,0,0,0-2.533-2.7,13.627,13.627,0,0,0-6.1-.747,18.81,18.81,0,0,0-5.439.955,7.308,7.308,0,0,0-3.654,2.74A13.927,13.927,0,0,0,166.055,89l-1.744,10.92Zm9.592-12.955a1.91,1.91,0,0,1,.581-1.287,2.933,2.933,0,0,1,1.744-.457,2.3,2.3,0,0,1,1.619.332,1.412,1.412,0,0,1,.208,1.246l-.664,4.152-4.111.125.664-4.152Z" transform="translate(-95.966 -64.168)"></path>
      <path class="bde-logo-cls-1" d="M212.542,106.532h7.765l3.529-21.218a1.827,1.827,0,0,1,.664-1.246,2.118,2.118,0,0,1,1.2-.374,2.076,2.076,0,0,1,1.121.166.777.777,0,0,1,.332.913l-.747,4.4,6.81-.208,1.37-8.014q.374-2.7-.747-3.529a4.986,4.986,0,0,0-3.363-.664,7.723,7.723,0,0,0-3.654.872,7.264,7.264,0,0,0-2.45,2.782h-.125l.5-2.907-7.557.374-4.692,28.65Z" transform="translate(-124.265 -62.477)"></path>
      <path class="bde-logo-cls-1" d="M244.6,135.986h8.1l1.536-8.886-8.18.125-1.453,8.761Z" transform="translate(-143.037 -91.931)"></path>
      <path class="bde-logo-cls-2" d="M273.123,78.857q-.831,4.484.374,6.311c.789,1.2,2.45,1.827,4.983,1.785a8.388,8.388,0,0,0,3.737-.623,8.671,8.671,0,0,0,3.156-2.99h.125l-.54,3.156h8.387l7.765-44.1-9.01.623-2.74,15.654h-.125a5.149,5.149,0,0,0-2.159-2.242,7.183,7.183,0,0,0-3.7-.623,8.471,8.471,0,0,0-4.817,1.536,7.354,7.354,0,0,0-2.657,4.858l-2.823,16.65Zm11.294-14.45a1.91,1.91,0,0,1,.747-1.287,2.7,2.7,0,0,1,1.578-.457,1.993,1.993,0,0,1,1.412.374,1.287,1.287,0,0,1,.291,1.246l-2.45,13.993a1.868,1.868,0,0,1-.747,1.246,2.657,2.657,0,0,1-1.536.415,1.993,1.993,0,0,1-1.412-.374,1.287,1.287,0,0,1-.291-1.246Z" transform="translate(-159.518 -42.4)"></path>
      <path class="bde-logo-cls-2" d="M330.777,94.043q-.706,4.111.249,6.228a5.273,5.273,0,0,0,3.529,2.865,22.629,22.629,0,0,0,6.519.706c4.65.083,8.055-.54,10.131-1.744s3.4-3.529,3.945-6.81l.332-1.827-9.716.166-.291,1.495a2.62,2.62,0,0,1-.955,1.827,3.862,3.862,0,0,1-2.118.457,3.311,3.311,0,0,1-2.2-.415q-.457-.457-.166-1.7l.955-5.315,15.2-.332,1.827-10.007a8.72,8.72,0,0,0-.125-4.526,5.149,5.149,0,0,0-3.239-2.99c-1.7-.706-4.277-.955-7.723-.789a26.575,26.575,0,0,0-6.893,1.038,9.259,9.259,0,0,0-4.609,3.114,14.243,14.243,0,0,0-2.491,6.353l-2.159,12.291ZM342.9,79.427a2.076,2.076,0,0,1,.747-1.453,4.278,4.278,0,0,1,2.2-.54,2.848,2.848,0,0,1,2.035.374,1.459,1.459,0,0,1,.249,1.412l-.83,4.734-5.232.166.83-4.65Z" transform="translate(-193.256 -59.289)"></path>
    </g>
  </g>
</svg>
