<svg xmlns="http://www.w3.org/2000/svg" viewBox="0 0 18 16">
  <style>
    .bde-icon-wishlist-outline-blue-cls-1 {
    fill: #1b6ec2;
    }
  </style>
  <g>
    <g>
      <g>
        <path class="bde-icon-wishlist-outline-blue-cls-1" d="M9,16a1,1,0,0,1-.53-.15C8.12,15.63,0,10.49,0,5A5,5,0,0,1,5,0,5.09,5.09,0,0,1,9,2.08,5.09,5.09,0,0,1,13,0a5,5,0,0,1,5,5c0,5.49-8.12,10.63-8.47,10.85A1,1,0,0,1,9,16ZM5,2A3,3,0,0,0,2,5c0,3.36,4.64,7.21,7,8.81,2.36-1.6,7-5.45,7-8.81a3,3,0,0,0-3-3,3.16,3.16,0,0,0-3,3A1,1,0,0,1,8,5,3.16,3.16,0,0,0,5,2Z"/>
      </g>
    </g>
  </g>
</svg>
